<mxfile host="app.diagrams.net" agent="Mozilla/5.0 (Windows NT 10.0; Win64; x64) AppleWebKit/537.36 (KHTML, like Gecko) Chrome/130.0.0.0 Safari/537.36 Edg/130.0.0.0" version="24.8.3">
  <diagram name="Page-1" id="HpfYL4KAwdnJSC-sTgEP">
    <mxGraphModel dx="1666" dy="749" grid="1" gridSize="10" guides="1" tooltips="1" connect="1" arrows="1" fold="1" page="1" pageScale="1" pageWidth="850" pageHeight="1100" math="0" shadow="0">
      <root>
        <mxCell id="0" />
        <mxCell id="1" parent="0" />
        <mxCell id="4A6c9v3RaQ-BC8OZOFRq-1" value="resumerun_read.f90" style="rounded=1;whiteSpace=wrap;html=1;fillColor=#FFCCCC;" parent="1" vertex="1">
          <mxGeometry x="444.92999999999995" y="20" width="157" height="40" as="geometry" />
        </mxCell>
        <mxCell id="4A6c9v3RaQ-BC8OZOFRq-2" value="&lt;div&gt;&lt;font style=&quot;font-size: 9px;&quot;&gt;Dependencies:&lt;/font&gt;&lt;/div&gt;&lt;div&gt;&lt;font size=&quot;1&quot; style=&quot;&quot;&gt;&lt;div style=&quot;&quot;&gt;LSS_Model\CLASS\3.6\sa_mesh_process\read_init_prog_variables_class.f90: read_init_prog_variables_class&lt;/div&gt;&lt;div style=&quot;&quot;&gt;LSS_Model\CLASS\3.6\sa_mesh_process\RUNCLASS36_config.f90: read_init_prog_variables_class&lt;/div&gt;&lt;div style=&quot;&quot;&gt;LSS_Model\SVS\svs1\src\runsvs_mesh.F90: runsvs_mesh_resume_states_seq&lt;/div&gt;&lt;div style=&quot;&quot;&gt;Routing_Model\baseflow_module\baseflow_module.f90: bflm_resume_read&lt;/div&gt;&lt;div style=&quot;&quot;&gt;Routing_Model\WatRoute_old\WF_ROUTE_config.f90: WF_ROUTE_resume_read&lt;/div&gt;&lt;div style=&quot;&quot;&gt;Routing_Model\RPN_watroute\sa_mesh_process\rte_module.f90: run_rte_resume_read&lt;/div&gt;&lt;div style=&quot;&quot;&gt;Driver\MESH_Driver\save_basin_output.f90: run_save_basin_output_resume_read&lt;/div&gt;&lt;div style=&quot;&quot;&gt;Modules\simulation_statistics\SIMSTATS.F90: stats_state_resume&lt;/div&gt;&lt;div style=&quot;&quot;&gt;Routing_Model\WatRoute_old\WF_ROUTE_config.f90: WF_ROUTE_resume_read_nots&lt;/div&gt;&lt;div style=&quot;&quot;&gt;Routing_Model\RPN_watroute\sa_mesh_process\rte_module.f90: run_rte_resume_read_nots&lt;/div&gt;&lt;div style=&quot;&quot;&gt;LSS_Model\CLASS\3.6\sa_mesh_process\RUNCLASS36_config.f90: read_init_prog_variables_class_row&lt;/div&gt;&lt;div style=&quot;&quot;&gt;Driver\MESH_Driver\sa_mesh_run_within_tile.f90: run_within_tile_stas_update&lt;/div&gt;&lt;div style=&quot;&quot;&gt;Driver\MESH_Driver\sa_mesh_run_within_grid.f90: run_within_grid_stas_update&lt;/div&gt;&lt;div style=&quot;&quot;&gt;Driver\MESH_Driver\sa_mesh_run_between_grid.f90: run_within_grid_stas_basin_update&lt;/div&gt;&lt;/font&gt;&lt;/div&gt;" style="rounded=0;whiteSpace=wrap;html=1;align=left;" parent="1" vertex="1">
          <mxGeometry y="10" width="420" height="230" as="geometry" />
        </mxCell>
        <mxCell id="4A6c9v3RaQ-BC8OZOFRq-5" value="" style="edgeStyle=orthogonalEdgeStyle;rounded=0;orthogonalLoop=1;jettySize=auto;html=1;" parent="1" source="4A6c9v3RaQ-BC8OZOFRq-3" target="4A6c9v3RaQ-BC8OZOFRq-4" edge="1">
          <mxGeometry relative="1" as="geometry" />
        </mxCell>
        <mxCell id="4A6c9v3RaQ-BC8OZOFRq-3" value="resumerun_read(fls, shd, cm)" style="rounded=1;whiteSpace=wrap;html=1;fontStyle=1" parent="1" vertex="1">
          <mxGeometry x="426.96" y="200" width="191.49" height="30" as="geometry" />
        </mxCell>
        <mxCell id="4A6c9v3RaQ-BC8OZOFRq-4" value="&lt;span style=&quot;font-weight: normal;&quot;&gt;call reset_tab&lt;/span&gt;" style="whiteSpace=wrap;html=1;rounded=1;fontStyle=1;" parent="1" vertex="1">
          <mxGeometry x="460.57" y="260" width="124.26" height="30" as="geometry" />
        </mxCell>
        <mxCell id="4A6c9v3RaQ-BC8OZOFRq-20" style="edgeStyle=orthogonalEdgeStyle;rounded=0;orthogonalLoop=1;jettySize=auto;html=1;" parent="1" source="4A6c9v3RaQ-BC8OZOFRq-6" target="4A6c9v3RaQ-BC8OZOFRq-19" edge="1">
          <mxGeometry relative="1" as="geometry" />
        </mxCell>
        <mxCell id="4A6c9v3RaQ-BC8OZOFRq-6" value="&lt;div&gt;&lt;br&gt;&lt;/div&gt;" style="rounded=0;whiteSpace=wrap;html=1;align=left;" parent="1" vertex="1">
          <mxGeometry x="350" y="330" width="345.4" height="230" as="geometry" />
        </mxCell>
        <mxCell id="4A6c9v3RaQ-BC8OZOFRq-7" value="do k = 1, shd%lc%NML(GRUs)" style="text;html=1;align=center;verticalAlign=middle;whiteSpace=wrap;rounded=0;" parent="1" vertex="1">
          <mxGeometry x="349.99999999999994" y="331" width="172.29" height="20" as="geometry" />
        </mxCell>
        <mxCell id="4A6c9v3RaQ-BC8OZOFRq-12" style="edgeStyle=orthogonalEdgeStyle;rounded=0;orthogonalLoop=1;jettySize=auto;html=1;entryX=0;entryY=0.5;entryDx=0;entryDy=0;" parent="1" source="4A6c9v3RaQ-BC8OZOFRq-8" target="4A6c9v3RaQ-BC8OZOFRq-10" edge="1">
          <mxGeometry relative="1" as="geometry" />
        </mxCell>
        <mxCell id="4A6c9v3RaQ-BC8OZOFRq-15" style="edgeStyle=orthogonalEdgeStyle;rounded=0;orthogonalLoop=1;jettySize=auto;html=1;entryX=0.5;entryY=0;entryDx=0;entryDy=0;" parent="1" source="4A6c9v3RaQ-BC8OZOFRq-8" target="4A6c9v3RaQ-BC8OZOFRq-13" edge="1">
          <mxGeometry relative="1" as="geometry" />
        </mxCell>
        <mxCell id="4A6c9v3RaQ-BC8OZOFRq-8" value="&lt;font style=&quot;font-size: 9px;&quot;&gt;If&amp;nbsp;RUNCLASS36_flgs ||&lt;/font&gt;&lt;div&gt;&lt;font style=&quot;font-size: 9px;&quot;&gt;svs_mesh process is active&amp;nbsp;&lt;/font&gt;&lt;/div&gt;" style="rhombus;whiteSpace=wrap;html=1;fillColor=#F19C99;" parent="1" vertex="1">
          <mxGeometry x="362.28999999999996" y="360" width="160" height="80" as="geometry" />
        </mxCell>
        <mxCell id="4A6c9v3RaQ-BC8OZOFRq-10" value="&lt;span style=&quot;font-weight: normal;&quot;&gt;Update &lt;/span&gt;&lt;span style=&quot;font-weight: 400;&quot;&gt;vs%tile&lt;/span&gt;&lt;span style=&quot;font-weight: normal;&quot;&gt;&amp;nbsp;variables at k with &lt;/span&gt;&lt;span style=&quot;font-weight: 400;&quot;&gt;vs%gru&lt;/span&gt;&lt;span style=&quot;font-weight: normal;&quot;&gt;&amp;nbsp;variables&lt;/span&gt;" style="whiteSpace=wrap;html=1;rounded=1;fontStyle=1;" parent="1" vertex="1">
          <mxGeometry x="553.27" y="375" width="124.26" height="50" as="geometry" />
        </mxCell>
        <mxCell id="4A6c9v3RaQ-BC8OZOFRq-17" style="edgeStyle=orthogonalEdgeStyle;rounded=0;orthogonalLoop=1;jettySize=auto;html=1;entryX=0;entryY=0.5;entryDx=0;entryDy=0;" parent="1" source="4A6c9v3RaQ-BC8OZOFRq-13" target="4A6c9v3RaQ-BC8OZOFRq-14" edge="1">
          <mxGeometry relative="1" as="geometry" />
        </mxCell>
        <mxCell id="4A6c9v3RaQ-BC8OZOFRq-13" value="&lt;font size=&quot;1&quot;&gt;if (RUNCLASS36_flgs% PROCESS_ACTIVE)&lt;/font&gt;" style="rhombus;whiteSpace=wrap;html=1;fillColor=#F19C99;" parent="1" vertex="1">
          <mxGeometry x="362.28999999999996" y="470" width="160" height="70" as="geometry" />
        </mxCell>
        <mxCell id="4A6c9v3RaQ-BC8OZOFRq-14" value="&lt;span style=&quot;font-weight: normal;&quot;&gt;Update &lt;/span&gt;&lt;span style=&quot;font-weight: 400;&quot;&gt;vs%tile%*&amp;nbsp;&lt;/span&gt;&lt;span style=&quot;font-weight: normal;&quot;&gt;variables at k with &lt;/span&gt;&lt;span style=&quot;font-weight: 400;&quot;&gt;vs%gru&lt;/span&gt;&lt;span style=&quot;font-weight: normal;&quot;&gt;&amp;nbsp;variables&lt;/span&gt;" style="whiteSpace=wrap;html=1;rounded=1;fontStyle=1;" parent="1" vertex="1">
          <mxGeometry x="545.4" y="470" width="140" height="70" as="geometry" />
        </mxCell>
        <mxCell id="4A6c9v3RaQ-BC8OZOFRq-23" style="rounded=0;orthogonalLoop=1;jettySize=auto;html=1;entryX=0;entryY=0.5;entryDx=0;entryDy=0;exitX=1;exitY=0.5;exitDx=0;exitDy=0;" parent="1" source="4A6c9v3RaQ-BC8OZOFRq-19" target="4A6c9v3RaQ-BC8OZOFRq-22" edge="1">
          <mxGeometry relative="1" as="geometry" />
        </mxCell>
        <mxCell id="4A6c9v3RaQ-BC8OZOFRq-61" style="rounded=0;orthogonalLoop=1;jettySize=auto;html=1;entryX=0.5;entryY=0;entryDx=0;entryDy=0;" parent="1" source="4A6c9v3RaQ-BC8OZOFRq-19" target="4A6c9v3RaQ-BC8OZOFRq-24" edge="1">
          <mxGeometry relative="1" as="geometry" />
        </mxCell>
        <mxCell id="4A6c9v3RaQ-BC8OZOFRq-19" value="&lt;font style=&quot;font-size: 9px;&quot;&gt;If&amp;nbsp;RUNCLASS36_flgs ||&lt;/font&gt;&lt;div&gt;&lt;font style=&quot;font-size: 9px;&quot;&gt;svs_mesh process is active&amp;nbsp;&lt;/font&gt;&lt;/div&gt;" style="rhombus;whiteSpace=wrap;html=1;fillColor=#F19C99;" parent="1" vertex="1">
          <mxGeometry x="442.7" y="610" width="160" height="80" as="geometry" />
        </mxCell>
        <mxCell id="4A6c9v3RaQ-BC8OZOFRq-21" style="edgeStyle=orthogonalEdgeStyle;rounded=0;orthogonalLoop=1;jettySize=auto;html=1;entryX=0.5;entryY=0;entryDx=0;entryDy=0;" parent="1" source="4A6c9v3RaQ-BC8OZOFRq-4" target="4A6c9v3RaQ-BC8OZOFRq-6" edge="1">
          <mxGeometry relative="1" as="geometry" />
        </mxCell>
        <mxCell id="4A6c9v3RaQ-BC8OZOFRq-22" value="&lt;span style=&quot;font-weight: 400;&quot;&gt;if ignd (last configured soild layer) &amp;gt; 0:&amp;nbsp;&lt;/span&gt;&lt;div&gt;&lt;br&gt;&lt;/div&gt;&lt;div&gt;&lt;span style=&quot;font-weight: 400;&quot;&gt;Assign the same state variables from layer ignd to all deeper soil layers.&lt;/span&gt;&lt;/div&gt;" style="whiteSpace=wrap;html=1;rounded=1;fontStyle=1;" parent="1" vertex="1">
          <mxGeometry x="730.0000000000001" y="530" width="220" height="70" as="geometry" />
        </mxCell>
        <mxCell id="4A6c9v3RaQ-BC8OZOFRq-62" style="edgeStyle=orthogonalEdgeStyle;rounded=0;orthogonalLoop=1;jettySize=auto;html=1;entryX=0.5;entryY=0;entryDx=0;entryDy=0;" parent="1" source="4A6c9v3RaQ-BC8OZOFRq-24" target="4A6c9v3RaQ-BC8OZOFRq-59" edge="1">
          <mxGeometry relative="1" as="geometry" />
        </mxCell>
        <mxCell id="4A6c9v3RaQ-BC8OZOFRq-24" value="&lt;div&gt;&lt;font style=&quot;font-size: 12px;&quot;&gt;&lt;br&gt;&lt;/font&gt;&lt;/div&gt;&lt;font style=&quot;font-size: 12px;&quot;&gt;if (.not. vs%flgs%resume%state == FLAG_OFF)&lt;/font&gt;" style="rhombus;whiteSpace=wrap;html=1;fillColor=#F19C99;" parent="1" vertex="1">
          <mxGeometry x="408.44999999999993" y="730" width="210" height="90" as="geometry" />
        </mxCell>
        <mxCell id="4A6c9v3RaQ-BC8OZOFRq-53" value="" style="group" parent="1" vertex="1" connectable="0">
          <mxGeometry x="666.96" y="620" width="520.0000000000001" height="490" as="geometry" />
        </mxCell>
        <mxCell id="4A6c9v3RaQ-BC8OZOFRq-26" value="&lt;div&gt;&lt;span style=&quot;font-weight: 400;&quot;&gt;&lt;br&gt;&lt;/span&gt;&lt;div&gt;&lt;div&gt;&lt;span style=&quot;font-weight: 400;&quot;&gt;&lt;br&gt;&lt;/span&gt;&lt;/div&gt;&lt;/div&gt;&lt;/div&gt;" style="whiteSpace=wrap;html=1;rounded=1;fontStyle=1;container=0;" parent="4A6c9v3RaQ-BC8OZOFRq-53" vertex="1">
          <mxGeometry width="520" height="490" as="geometry" />
        </mxCell>
        <mxCell id="4A6c9v3RaQ-BC8OZOFRq-27" value="If Sequential Binary format:&lt;div&gt;&lt;br&gt;&lt;/div&gt;" style="text;html=1;align=center;verticalAlign=middle;whiteSpace=wrap;rounded=0;container=0;" parent="4A6c9v3RaQ-BC8OZOFRq-53" vertex="1">
          <mxGeometry x="27.5" y="20" width="172.29" height="20" as="geometry" />
        </mxCell>
        <mxCell id="4A6c9v3RaQ-BC8OZOFRq-30" style="edgeStyle=orthogonalEdgeStyle;rounded=0;orthogonalLoop=1;jettySize=auto;html=1;entryX=0;entryY=0.5;entryDx=0;entryDy=0;" parent="4A6c9v3RaQ-BC8OZOFRq-53" source="4A6c9v3RaQ-BC8OZOFRq-28" target="4A6c9v3RaQ-BC8OZOFRq-29" edge="1">
          <mxGeometry relative="1" as="geometry" />
        </mxCell>
        <mxCell id="4A6c9v3RaQ-BC8OZOFRq-40" value="True" style="edgeLabel;html=1;align=center;verticalAlign=middle;resizable=0;points=[];container=0;" parent="4A6c9v3RaQ-BC8OZOFRq-30" vertex="1" connectable="0">
          <mxGeometry x="-0.1855" y="4" relative="1" as="geometry">
            <mxPoint as="offset" />
          </mxGeometry>
        </mxCell>
        <mxCell id="4A6c9v3RaQ-BC8OZOFRq-32" style="edgeStyle=orthogonalEdgeStyle;rounded=0;orthogonalLoop=1;jettySize=auto;html=1;" parent="4A6c9v3RaQ-BC8OZOFRq-53" source="4A6c9v3RaQ-BC8OZOFRq-28" target="4A6c9v3RaQ-BC8OZOFRq-31" edge="1">
          <mxGeometry relative="1" as="geometry" />
        </mxCell>
        <mxCell id="4A6c9v3RaQ-BC8OZOFRq-28" value="if auto-resume" style="rhombus;whiteSpace=wrap;html=1;fillColor=#F19C99;container=0;" parent="4A6c9v3RaQ-BC8OZOFRq-53" vertex="1">
          <mxGeometry x="35.370000000000005" y="50" width="119.26" height="30" as="geometry" />
        </mxCell>
        <mxCell id="4A6c9v3RaQ-BC8OZOFRq-29" value="&lt;span style=&quot;font-weight: 400;&quot;&gt;&lt;font style=&quot;font-size: 10px;&quot;&gt;Modifiy the resume filename to include the simulation start date&lt;/font&gt;&lt;/span&gt;" style="whiteSpace=wrap;html=1;rounded=1;fontStyle=1;container=0;" parent="4A6c9v3RaQ-BC8OZOFRq-53" vertex="1">
          <mxGeometry x="226.92999999999995" y="40" width="110" height="50" as="geometry" />
        </mxCell>
        <mxCell id="4A6c9v3RaQ-BC8OZOFRq-34" style="edgeStyle=orthogonalEdgeStyle;rounded=0;orthogonalLoop=1;jettySize=auto;html=1;entryX=0;entryY=0.5;entryDx=0;entryDy=0;" parent="4A6c9v3RaQ-BC8OZOFRq-53" source="4A6c9v3RaQ-BC8OZOFRq-31" target="4A6c9v3RaQ-BC8OZOFRq-33" edge="1">
          <mxGeometry relative="1" as="geometry" />
        </mxCell>
        <mxCell id="4A6c9v3RaQ-BC8OZOFRq-39" value="True" style="edgeLabel;html=1;align=center;verticalAlign=middle;resizable=0;points=[];container=0;" parent="4A6c9v3RaQ-BC8OZOFRq-34" vertex="1" connectable="0">
          <mxGeometry x="-0.4004" relative="1" as="geometry">
            <mxPoint as="offset" />
          </mxGeometry>
        </mxCell>
        <mxCell id="4A6c9v3RaQ-BC8OZOFRq-38" style="edgeStyle=orthogonalEdgeStyle;rounded=0;orthogonalLoop=1;jettySize=auto;html=1;" parent="4A6c9v3RaQ-BC8OZOFRq-53" source="4A6c9v3RaQ-BC8OZOFRq-31" target="4A6c9v3RaQ-BC8OZOFRq-35" edge="1">
          <mxGeometry relative="1" as="geometry" />
        </mxCell>
        <mxCell id="4A6c9v3RaQ-BC8OZOFRq-31" value="&lt;font style=&quot;font-size: 10px;&quot;&gt;If +STASONLY and +CLASSPROG flags not in&amp;nbsp;vs%flgs%resume%bin&lt;/font&gt;" style="rhombus;whiteSpace=wrap;html=1;fillColor=#F19C99;container=0;" parent="4A6c9v3RaQ-BC8OZOFRq-53" vertex="1">
          <mxGeometry y="110" width="190" height="100" as="geometry" />
        </mxCell>
        <mxCell id="4A6c9v3RaQ-BC8OZOFRq-33" value="&lt;div&gt;&lt;span style=&quot;font-size: 10px; font-weight: 400;&quot;&gt;&amp;nbsp; &amp;nbsp;lstate = climate_module_resume_read(fls, shd, cm)&lt;/span&gt;&lt;/div&gt;&lt;div&gt;&lt;span style=&quot;font-size: 10px; font-weight: 400;&quot;&gt;call read_init_prog_variables_class(fls, shd)&lt;/span&gt;&lt;/div&gt;&lt;div&gt;&lt;span style=&quot;font-size: 10px; font-weight: 400;&quot;&gt;call runsvs_mesh_resume_states_seq(fls, shd, resume_ts = .true.)&lt;/span&gt;&lt;/div&gt;&lt;div&gt;&lt;span style=&quot;font-size: 10px; font-weight: 400;&quot;&gt;call bflm_resume_read(fls, shd)&lt;/span&gt;&lt;/div&gt;&lt;div&gt;&lt;span style=&quot;font-size: 10px; font-weight: 400;&quot;&gt;call WF_ROUTE_resume_read(fls, shd)&lt;/span&gt;&lt;/div&gt;&lt;div&gt;&lt;span style=&quot;font-size: 10px; font-weight: 400;&quot;&gt;call run_rte_resume_read(fls, shd)&lt;/span&gt;&lt;/div&gt;&lt;div&gt;&lt;span style=&quot;font-size: 10px; font-weight: 400;&quot;&gt;call run_save_basin_output_resume_read(fls, shd)&lt;/span&gt;&lt;/div&gt;&lt;div&gt;&lt;span style=&quot;font-size: 10px; font-weight: 400;&quot;&gt;&amp;nbsp; &amp;nbsp;call stats_state_resume(fls)&lt;/span&gt;&lt;/div&gt;" style="whiteSpace=wrap;html=1;rounded=1;fontStyle=1;align=left;container=0;" parent="4A6c9v3RaQ-BC8OZOFRq-53" vertex="1">
          <mxGeometry x="226.93" y="93.75" width="273.07" height="132.5" as="geometry" />
        </mxCell>
        <mxCell id="4A6c9v3RaQ-BC8OZOFRq-37" style="edgeStyle=orthogonalEdgeStyle;rounded=0;orthogonalLoop=1;jettySize=auto;html=1;entryX=0;entryY=0.5;entryDx=0;entryDy=0;" parent="4A6c9v3RaQ-BC8OZOFRq-53" source="4A6c9v3RaQ-BC8OZOFRq-35" target="4A6c9v3RaQ-BC8OZOFRq-36" edge="1">
          <mxGeometry relative="1" as="geometry" />
        </mxCell>
        <mxCell id="4A6c9v3RaQ-BC8OZOFRq-41" value="True" style="edgeLabel;html=1;align=center;verticalAlign=middle;resizable=0;points=[];container=0;" parent="4A6c9v3RaQ-BC8OZOFRq-37" vertex="1" connectable="0">
          <mxGeometry x="-0.712" y="-1" relative="1" as="geometry">
            <mxPoint as="offset" />
          </mxGeometry>
        </mxCell>
        <mxCell id="4A6c9v3RaQ-BC8OZOFRq-46" style="edgeStyle=orthogonalEdgeStyle;rounded=0;orthogonalLoop=1;jettySize=auto;html=1;" parent="4A6c9v3RaQ-BC8OZOFRq-53" source="4A6c9v3RaQ-BC8OZOFRq-35" target="4A6c9v3RaQ-BC8OZOFRq-44" edge="1">
          <mxGeometry relative="1" as="geometry" />
        </mxCell>
        <mxCell id="4A6c9v3RaQ-BC8OZOFRq-35" value="&lt;font style=&quot;font-size: 10px;&quot;&gt;Else If +CLASSPROG flags not in&amp;nbsp;vs%flgs%resume%bin&lt;/font&gt;" style="rhombus;whiteSpace=wrap;html=1;fillColor=#F19C99;container=0;" parent="4A6c9v3RaQ-BC8OZOFRq-53" vertex="1">
          <mxGeometry y="240" width="190" height="100" as="geometry" />
        </mxCell>
        <mxCell id="4A6c9v3RaQ-BC8OZOFRq-36" value="&lt;div&gt;&lt;span style=&quot;font-size: 10px; font-weight: 400;&quot;&gt;call read_init_prog_variables_class(fls, shd)&lt;/span&gt;&lt;/div&gt;&lt;div&gt;&lt;span style=&quot;font-size: 10px; font-weight: 400;&quot;&gt;call runsvs_mesh_resume_states_seq(fls, shd, resume_ts = .false.)&lt;/span&gt;&lt;/div&gt;&lt;div&gt;&lt;span style=&quot;font-size: 10px; font-weight: 400;&quot;&gt;call bflm_resume_read(fls, shd)&lt;/span&gt;&lt;/div&gt;&lt;div&gt;&lt;span style=&quot;font-size: 10px; font-weight: 400;&quot;&gt;call WF_ROUTE_resume_read_nots(fls, shd)&lt;/span&gt;&lt;/div&gt;&lt;div&gt;&lt;span style=&quot;font-size: 10px; font-weight: 400;&quot;&gt;call run_rte_resume_read_nots(fls, shd)&lt;/span&gt;&lt;/div&gt;" style="whiteSpace=wrap;html=1;rounded=1;fontStyle=1;align=left;container=0;" parent="4A6c9v3RaQ-BC8OZOFRq-53" vertex="1">
          <mxGeometry x="236.92999999999995" y="235" width="270" height="110" as="geometry" />
        </mxCell>
        <mxCell id="4A6c9v3RaQ-BC8OZOFRq-43" value="&lt;div&gt;&lt;span style=&quot;font-size: 10px; font-weight: 400;&quot;&gt;call read_init_prog_variables_class_row(fls, shd)&lt;/span&gt;&lt;/div&gt;&lt;div&gt;&lt;span style=&quot;font-size: 10px; font-weight: 400;&quot;&gt;call runsvs_mesh_resume_states_seq(fls, shd, resume_ts = .false.)&lt;/span&gt;&lt;/div&gt;" style="whiteSpace=wrap;html=1;rounded=1;fontStyle=1;align=left;container=0;" parent="4A6c9v3RaQ-BC8OZOFRq-53" vertex="1">
          <mxGeometry x="236.92999999999995" y="360" width="250" height="70" as="geometry" />
        </mxCell>
        <mxCell id="4A6c9v3RaQ-BC8OZOFRq-45" style="edgeStyle=orthogonalEdgeStyle;rounded=0;orthogonalLoop=1;jettySize=auto;html=1;" parent="4A6c9v3RaQ-BC8OZOFRq-53" source="4A6c9v3RaQ-BC8OZOFRq-44" target="4A6c9v3RaQ-BC8OZOFRq-43" edge="1">
          <mxGeometry relative="1" as="geometry" />
        </mxCell>
        <mxCell id="4A6c9v3RaQ-BC8OZOFRq-51" value="" style="edgeStyle=orthogonalEdgeStyle;rounded=0;orthogonalLoop=1;jettySize=auto;html=1;entryX=0.25;entryY=0;entryDx=0;entryDy=0;" parent="4A6c9v3RaQ-BC8OZOFRq-53" source="4A6c9v3RaQ-BC8OZOFRq-44" target="4A6c9v3RaQ-BC8OZOFRq-52" edge="1">
          <mxGeometry relative="1" as="geometry">
            <mxPoint x="95.33000000000004" y="430" as="targetPoint" />
          </mxGeometry>
        </mxCell>
        <mxCell id="4A6c9v3RaQ-BC8OZOFRq-44" value="Else" style="rhombus;whiteSpace=wrap;html=1;fillColor=#F19C99;container=0;" parent="4A6c9v3RaQ-BC8OZOFRq-53" vertex="1">
          <mxGeometry x="35.370000000000005" y="380" width="119.26" height="30" as="geometry" />
        </mxCell>
        <mxCell id="4A6c9v3RaQ-BC8OZOFRq-52" value="&lt;span style=&quot;font-size: 10px; font-weight: 400;&quot;&gt;Restore Filename After Auto-Resume&lt;/span&gt;" style="whiteSpace=wrap;html=1;rounded=1;fontStyle=1;align=left;container=0;" parent="4A6c9v3RaQ-BC8OZOFRq-53" vertex="1">
          <mxGeometry x="35.370000000000005" y="440" width="171.56" height="30" as="geometry" />
        </mxCell>
        <mxCell id="4A6c9v3RaQ-BC8OZOFRq-56" style="rounded=0;orthogonalLoop=1;jettySize=auto;html=1;entryX=0.009;entryY=0.176;entryDx=0;entryDy=0;entryPerimeter=0;exitX=1;exitY=0.5;exitDx=0;exitDy=0;" parent="1" source="4A6c9v3RaQ-BC8OZOFRq-24" target="4A6c9v3RaQ-BC8OZOFRq-26" edge="1">
          <mxGeometry relative="1" as="geometry" />
        </mxCell>
        <mxCell id="4A6c9v3RaQ-BC8OZOFRq-64" style="edgeStyle=orthogonalEdgeStyle;rounded=0;orthogonalLoop=1;jettySize=auto;html=1;entryX=0.5;entryY=0;entryDx=0;entryDy=0;" parent="1" source="4A6c9v3RaQ-BC8OZOFRq-59" target="4A6c9v3RaQ-BC8OZOFRq-63" edge="1">
          <mxGeometry relative="1" as="geometry" />
        </mxCell>
        <mxCell id="4A6c9v3RaQ-BC8OZOFRq-59" value="&lt;div&gt;&lt;span style=&quot;font-weight: 400;&quot;&gt;!&amp;gt; Update derived values.&lt;/span&gt;&lt;/div&gt;&lt;div&gt;&lt;span style=&quot;font-weight: 400;&quot;&gt;&amp;nbsp; &amp;nbsp; call run_within_tile_stas_update(fls, shd, cm)&lt;/span&gt;&lt;/div&gt;&lt;div&gt;&lt;span style=&quot;font-weight: 400;&quot;&gt;&amp;nbsp; &amp;nbsp; call run_within_grid_stas_update(fls, shd, cm)&lt;/span&gt;&lt;/div&gt;&lt;div&gt;&lt;span style=&quot;font-weight: 400;&quot;&gt;&amp;nbsp; &amp;nbsp; call run_within_grid_stas_basin_update(fls, shd, cm)&lt;/span&gt;&lt;/div&gt;" style="whiteSpace=wrap;html=1;rounded=1;fontStyle=1;fillColor=#CCFFCC;" parent="1" vertex="1">
          <mxGeometry x="374.96999999999997" y="850" width="276.96" height="80" as="geometry" />
        </mxCell>
        <mxCell id="4A6c9v3RaQ-BC8OZOFRq-63" value="end subroutine" style="whiteSpace=wrap;html=1;fillColor=#FFFFFF;rounded=1;fontStyle=1;" parent="1" vertex="1">
          <mxGeometry x="456.1699999999999" y="960" width="113.13" height="40" as="geometry" />
        </mxCell>
      </root>
    </mxGraphModel>
  </diagram>
</mxfile>
